# This file uses centimeters as units for non-parametric coordinates.

mtllib boletus_lowpol2.mtl
g default
v 4.119330 0.007181 0.174276
v 4.723040 0.007181 0.174276
v 4.421185 0.007181 -0.348552
v 4.421185 0.007181 0.348552
v 4.723040 0.007181 -0.174276
v 4.119330 0.007181 -0.174276
v 4.421185 0.007181 0.000000
v 4.119330 0.944726 -0.174276
v 4.119330 0.944726 0.174276
v 4.421185 0.944726 0.348552
v 4.723040 0.944726 0.174276
v 4.723040 0.944726 -0.174276
v 4.421185 0.944726 -0.348552
v 3.390432 1.595979 -0.595106
v 3.390432 1.595979 0.595106
v 4.421185 1.595979 1.190211
v 4.421185 1.595979 0.000000
v 5.451938 1.595979 0.595106
v 5.451938 1.595979 -0.595106
v 4.421185 1.595979 -1.190211
v 3.656125 1.337353 -0.441707
v 3.656125 1.337353 0.441708
v 4.421185 1.337353 0.883415
v 5.186244 1.337353 0.441707
v 5.186244 1.337353 -0.441708
v 4.421185 1.337353 -0.883415
v 3.446760 1.301579 -0.562584
v 3.446760 1.301579 0.562585
v 3.249751 1.491848 0.676328
v 3.249751 1.491848 -0.676328
v 4.421185 1.301579 1.125169
v 4.421185 1.491848 1.352655
v 5.395609 1.301579 0.562584
v 5.592618 1.491848 0.676328
v 5.395609 1.301579 -0.562585
v 5.592618 1.491848 -0.676328
v 4.421185 1.301579 -1.125169
v 4.421185 1.491848 -1.352655
vt 0.696687 0.095991
vt 0.768333 0.199345
vt 0.891410 0.237812
vt 0.725165 0.155453
vt 0.823231 0.228405
vt 0.687221 0.015745
vt 0.268006 0.875749
vt 0.825285 0.122309
vt 0.401846 0.170186
vt 0.464332 0.253817
vt 0.553543 0.324250
vt 0.650957 0.391658
vt 0.749453 0.456048
vt 0.847651 0.507358
vt 0.805208 0.989011
vt 0.237422 0.517901
vt 0.375660 0.583862
vt 0.460242 0.631018
vt 0.529852 0.697101
vt 0.632440 0.805956
vt 0.014345 0.387549
vt 0.943727 0.532613
vt 0.976895 0.213078
vt 0.939717 0.785506
vt 0.184256 0.224419
vt 0.313059 0.359631
vt 0.441749 0.427804
vt 0.558368 0.495104
vt 0.660911 0.585606
vt 0.770858 0.689585
vt 0.110727 0.258168
vt 0.278736 0.407314
vt 0.248052 0.473941
vt 0.030007 0.319099
vt 0.415269 0.473555
vt 0.386223 0.538701
vt 0.528423 0.534940
vt 0.487682 0.591521
vt 0.624329 0.623872
vt 0.570426 0.671505
vt 0.732170 0.735251
vt 0.675163 0.784693
vt 0.919309 0.869122
vt 0.868402 0.961063
vn 0.000000 1.000000 0.000000
vn 0.000000 1.000000 0.000000
vn 0.000000 1.000000 0.000000
vn 0.000000 1.000000 0.000000
vn 0.000000 1.000000 0.000000
vn 0.000000 1.000000 0.000000
vn 0.000000 1.000000 0.000000
vn -0.000000 -1.000000 -0.000000
vn 0.000000 -1.000000 -0.000000
vn -0.000000 -1.000000 0.000000
vn -0.000000 -1.000000 0.000000
vn 0.000000 -1.000000 -0.000000
vn 0.000000 -1.000000 0.000000
vn -0.000000 -1.000000 -0.000000
vn -1.000000 0.000000 0.000000
vn -1.000000 0.000000 0.000000
vn -1.000000 0.000000 0.000000
vn -1.000000 0.000000 0.000000
vn -0.500000 0.000000 0.866026
vn -0.500000 0.000000 0.866026
vn -0.500000 0.000000 0.866026
vn -0.500000 0.000000 0.866026
vn 0.500000 0.000000 0.866025
vn 0.500000 0.000000 0.866025
vn 0.500000 0.000000 0.866025
vn 0.500000 0.000000 0.866025
vn 1.000000 0.000000 0.000000
vn 1.000000 0.000000 0.000000
vn 1.000000 0.000000 0.000000
vn 1.000000 0.000000 0.000000
vn 0.500000 0.000000 -0.866025
vn 0.500000 0.000000 -0.866025
vn 0.500000 0.000000 -0.866025
vn 0.500000 0.000000 -0.866025
vn -0.500000 0.000000 -0.866026
vn -0.500000 0.000000 -0.866026
vn -0.500000 0.000000 -0.866026
vn -0.500000 0.000000 -0.866026
vn -0.694695 -0.719305 0.000000
vn -0.694695 -0.719304 0.000000
vn -0.694695 -0.719305 0.000000
vn -0.694695 -0.719305 0.000000
vn -0.347347 -0.719305 0.601623
vn -0.347347 -0.719305 0.601623
vn -0.347347 -0.719305 0.601623
vn -0.347347 -0.719305 0.601623
vn 0.347347 -0.719305 0.601623
vn 0.347348 -0.719305 0.601623
vn 0.347347 -0.719305 0.601623
vn 0.347347 -0.719305 0.601623
vn 0.694694 -0.719305 0.000000
vn 0.694694 -0.719305 0.000000
vn 0.694694 -0.719305 0.000000
vn 0.694694 -0.719305 0.000000
vn 0.347347 -0.719305 -0.601623
vn 0.347347 -0.719305 -0.601623
vn 0.347347 -0.719305 -0.601623
vn 0.347347 -0.719305 -0.601623
vn -0.347347 -0.719304 -0.601624
vn -0.347347 -0.719304 -0.601624
vn -0.347347 -0.719304 -0.601624
vn -0.347347 -0.719304 -0.601624
vn -0.646599 -0.762830 0.000000
vn -0.646599 -0.762830 0.000000
vn -0.646599 -0.762830 0.000000
vn -0.646599 -0.762830 0.000000
vn -0.323299 -0.762830 0.559971
vn -0.323299 -0.762830 0.559971
vn -0.323299 -0.762830 0.559971
vn -0.323299 -0.762830 0.559971
vn 0.323300 -0.762830 0.559971
vn 0.323300 -0.762830 0.559971
vn 0.323300 -0.762830 0.559971
vn 0.323300 -0.762830 0.559971
vn 0.646599 -0.762830 0.000000
vn 0.646599 -0.762830 0.000000
vn 0.646599 -0.762830 0.000000
vn 0.646599 -0.762830 0.000000
vn 0.323300 -0.762830 -0.559971
vn 0.323300 -0.762830 -0.559971
vn 0.323300 -0.762830 -0.559971
vn 0.323300 -0.762830 -0.559971
vn -0.323299 -0.762830 -0.559971
vn -0.323299 -0.762830 -0.559971
vn -0.323299 -0.762830 -0.559971
vn -0.323299 -0.762830 -0.559971
vn 0.168425 -0.985714 -0.000000
vn 0.168425 -0.985714 -0.000000
vn 0.168425 -0.985714 -0.000000
vn 0.168425 -0.985714 -0.000000
vn -0.594945 0.803767 0.000000
vn -0.594945 0.803767 0.000000
vn -0.594945 0.803767 0.000000
vn -0.594945 0.803767 0.000000
vn 0.084212 -0.985714 -0.145860
vn 0.084212 -0.985714 -0.145860
vn 0.084212 -0.985714 -0.145860
vn 0.084212 -0.985714 -0.145860
vn -0.297472 0.803767 0.515237
vn -0.297472 0.803767 0.515237
vn -0.297472 0.803767 0.515237
vn -0.297472 0.803767 0.515237
vn -0.084212 -0.985714 -0.145860
vn -0.084212 -0.985714 -0.145860
vn -0.084212 -0.985714 -0.145860
vn -0.084212 -0.985714 -0.145860
vn 0.297472 0.803767 0.515237
vn 0.297472 0.803767 0.515237
vn 0.297472 0.803767 0.515237
vn 0.297472 0.803767 0.515237
vn -0.168425 -0.985714 0.000000
vn -0.168425 -0.985714 0.000000
vn -0.168425 -0.985714 0.000000
vn -0.168425 -0.985714 0.000000
vn 0.594944 0.803767 0.000000
vn 0.594944 0.803767 0.000000
vn 0.594944 0.803767 0.000000
vn 0.594944 0.803767 0.000000
vn -0.084212 -0.985715 0.145860
vn -0.084212 -0.985715 0.145860
vn -0.084212 -0.985714 0.145860
vn -0.084212 -0.985714 0.145860
vn 0.297472 0.803767 -0.515237
vn 0.297472 0.803767 -0.515237
vn 0.297472 0.803767 -0.515237
vn 0.297472 0.803767 -0.515237
vn 0.084212 -0.985714 0.145861
vn 0.084212 -0.985714 0.145861
vn 0.084212 -0.985714 0.145860
vn 0.084212 -0.985714 0.145861
vn -0.297472 0.803767 -0.515237
vn -0.297472 0.803767 -0.515237
vn -0.297472 0.803767 -0.515237
vn -0.297472 0.803767 -0.515237
s 1
g pasted__pDisc1 group
usemtl initialShadingGroup
f 14/21/1 15/16/2 16/17/3 17/7/4
f 16/17/3 18/18/5 19/19/6 17/7/4
f 19/19/6 20/20/7 14/15/1 17/7/4
s 2
f 6/6/8 7/8/9 4/4/10 1/1/11
f 4/4/10 7/8/9 5/5/12 2/2/13
f 5/5/12 7/8/9 6/23/8 3/3/14
s off
f 6/6/15 1/1/16 9/10/17 8/9/18
f 1/1/19 4/4/20 10/11/21 9/10/22
f 4/4/23 2/2/24 11/12/25 10/11/26
f 2/2/27 5/5/28 12/13/29 11/12/30
f 5/5/31 3/3/32 13/14/33 12/13/34
f 3/3/35 6/23/36 8/22/37 13/14/38
f 27/31/39 28/32/40 29/33/41 30/34/42
f 28/32/43 31/35/44 32/36/45 29/33/46
f 31/35/47 33/37/48 34/38/49 32/36/50
f 33/37/51 35/39/52 36/40/53 34/38/54
f 35/39/55 37/41/56 38/42/57 36/40/58
f 37/41/59 27/43/60 30/44/61 38/42/62
f 8/9/63 9/10/64 22/26/65 21/25/66
f 9/10/67 10/11/68 23/27/69 22/26/70
f 10/11/71 11/12/72 24/28/73 23/27/74
f 11/12/75 12/13/76 25/29/77 24/28/78
f 12/13/79 13/14/80 26/30/81 25/29/82
f 13/14/83 8/22/84 21/24/85 26/30/86
f 21/25/87 22/26/88 28/32/89 27/31/90
f 15/16/91 14/21/92 30/34/93 29/33/94
f 22/26/95 23/27/96 31/35/97 28/32/98
f 16/17/99 15/16/100 29/33/101 32/36/102
f 23/27/103 24/28/104 33/37/105 31/35/106
f 18/18/107 16/17/108 32/36/109 34/38/110
f 24/28/111 25/29/112 35/39/113 33/37/114
f 19/19/115 18/18/116 34/38/117 36/40/118
f 25/29/119 26/30/120 37/41/121 35/39/122
f 20/20/123 19/19/124 36/40/125 38/42/126
f 26/30/127 21/24/128 27/43/129 37/41/130
f 14/15/131 20/20/132 38/42/133 30/44/134
