# This file uses centimeters as units for non-parametric coordinates.

mtllib leaf_orange.mtl
g default
v 0.344115 -0.016084 0.415503
v 0.654726 -0.016084 0.415503
v 0.344115 -0.016084 0.104892
v 0.654726 -0.016084 0.104892
v 0.344115 -0.016084 -0.205719
v 0.654726 -0.016084 -0.205719
vt 0.666667 0.000000
vt 1.000000 0.000000
vt 1.000000 0.333333
vt 0.666667 0.333333
vt 1.000000 0.666667
vt 0.666667 0.666667
vn 0.000000 1.000000 0.000000
vn 0.000000 1.000000 0.000000
vn 0.000000 1.000000 0.000000
vn 0.000000 1.000000 0.000000
vn 0.000000 1.000000 0.000000
vn 0.000000 1.000000 0.000000
s 1
g polySurface2 group1
usemtl aiStandardSurface1SG
f 1/1/1 2/2/2 4/3/3 3/4/4
f 3/4/4 4/3/3 6/5/5 5/6/6
