# This file uses centimeters as units for non-parametric coordinates.

mtllib leaf_yellow.mtl
g default
v 0.022143 -0.016084 -0.239802
v 0.022143 -0.016084 -0.550413
v 0.332754 -0.016084 -0.550413
v 0.643365 -0.016084 -0.550413
v 0.332754 -0.016084 -0.239802
v 0.643365 -0.016084 -0.239802
vt 0.333333 0.666667
vt 0.666667 0.666667
vt 0.666667 1.000000
vt 0.333333 1.000000
vt 0.666667 0.666667
vt 1.000000 0.666667
vt 1.000000 1.000000
vn 0.000000 1.000000 0.000000
vn 0.000000 1.000000 0.000000
vn 0.000000 1.000000 0.000000
vn 0.000000 1.000000 0.000000
vn 0.000000 1.000000 0.000000
vn 0.000000 1.000000 0.000000
s 1
g polySurface4 group1
usemtl aiStandardSurface1SG
f 1/1/1 5/2/2 3/3/3 2/4/4
f 5/5/2 6/6/5 4/7/6 3/3/3
